<svg width="189" height="36" viewBox="0 0 189 36" fill="none" xmlns="http://www.w3.org/2000/svg">
<g clip-path="url(#clip0_440_32425)">
<path d="M1.39453 29.3501H3.17638V29.8777H1.99489V31.0225H3.03751V31.523H1.99489V32.7136H3.19347V33.2412H1.39453V29.348V29.3501Z" fill="white"/>
<path d="M4.75995 30.4845H5.36031V30.7347C5.5761 30.4678 5.83461 30.4407 5.95426 30.4407C6.15723 30.4407 6.30251 30.5074 6.39865 30.6012C6.55462 30.7514 6.57171 30.9349 6.57171 31.0683V33.2433H5.97135V31.2915C5.97135 31.2247 5.96494 31.1413 5.8923 31.0683C5.83889 31.012 5.77265 30.9849 5.68292 30.9849C5.56969 30.9849 5.49705 31.035 5.45431 31.0746C5.36458 31.1643 5.35817 31.2644 5.35817 31.3519V33.2433H4.75781V30.4845H4.75995Z" fill="white"/>
<path d="M8.91937 29.6442V30.4845H9.30394V30.9287H8.91937V32.4405C8.91937 32.4968 8.92578 32.6136 9.00269 32.6741C9.06892 32.7241 9.17148 32.7241 9.22489 32.7241H9.30394V33.2412H9.14157C8.96851 33.2412 8.68008 33.235 8.4942 33.0473C8.32542 32.8805 8.32115 32.6574 8.32115 32.4905V30.9287H8.01562V30.4845H8.32115V29.6442H8.92151H8.91937Z" fill="white"/>
<path d="M11.3853 32.4258C11.3853 32.5093 11.3917 32.5989 11.4644 32.6656C11.5114 32.7157 11.5968 32.7428 11.693 32.7428C11.7955 32.7428 11.8725 32.7094 11.9323 32.626C11.9686 32.5697 11.9857 32.4988 11.9857 32.4363H12.5861V32.4592C12.5861 32.6657 12.5433 32.9367 12.2506 33.1328C12.1011 33.2328 11.896 33.2891 11.693 33.2891C11.4174 33.2891 11.1589 33.1828 11.0029 33.0222C10.7935 32.8054 10.7871 32.5218 10.7871 32.3549V31.2977C10.7871 31.1038 10.8298 30.8306 11.0819 30.6304C11.2208 30.5199 11.4238 30.4407 11.6759 30.4407C11.928 30.4407 12.1502 30.5178 12.2998 30.6409C12.5625 30.8515 12.5989 31.1309 12.5989 31.3478V32.0714H11.3875V32.4279L11.3853 32.4258ZM11.9964 31.6418V31.281C11.9964 31.2081 11.9836 31.1309 11.913 31.0642C11.866 31.0204 11.787 30.987 11.6909 30.987C11.5883 30.987 11.505 31.0266 11.458 31.0809C11.3982 31.1476 11.3853 31.231 11.3853 31.304V31.6439H11.9964V31.6418Z" fill="white"/>
<path d="M14.8209 30.4845V30.7785L14.8337 30.7847C15.0794 30.5011 15.4084 30.4407 15.6199 30.4407V31.035C15.3315 30.9912 14.823 31.0579 14.823 31.6626V33.2412H14.2227V30.4824H14.823L14.8209 30.4845Z" fill="white"/>
<path d="M17.6336 30.7284H17.64C17.687 30.6555 17.766 30.5846 17.8429 30.5345C17.9519 30.4678 18.0886 30.4407 18.2083 30.4407C18.5074 30.4407 18.6591 30.5908 18.7061 30.6513C18.8386 30.8181 18.845 31.0454 18.845 31.2247V32.6594C18.845 32.7929 18.8279 32.9764 18.6719 33.1265C18.5523 33.2433 18.4027 33.2871 18.2275 33.2871C18.0523 33.2871 17.9391 33.2433 17.8323 33.1807C17.7532 33.1369 17.6891 33.0806 17.6336 33.0201V34.3777H17.0332V30.4845H17.6336V30.7284ZM17.6336 32.3737C17.6336 32.4634 17.64 32.5635 17.7297 32.6511C17.7724 32.6907 17.8429 32.7407 17.9583 32.7407C18.048 32.7407 18.1143 32.7136 18.1677 32.6573C18.2403 32.5843 18.2467 32.5009 18.2467 32.4342V31.3165C18.2467 31.2226 18.2467 31.1434 18.1677 31.0663C18.1143 31.01 18.048 30.9828 17.9583 30.9828C17.8451 30.9828 17.7724 31.0329 17.7297 31.0725C17.64 31.1622 17.6336 31.2623 17.6336 31.3498V32.3737Z" fill="white"/>
<path d="M21.1217 30.4845V30.7785L21.1345 30.7847C21.3802 30.5011 21.7092 30.4407 21.9207 30.4407V31.035C21.6323 30.9912 21.1238 31.0579 21.1238 31.6626V33.2412H20.5234V30.4824H21.1238L21.1217 30.4845Z" fill="white"/>
<path d="M23.9363 29.4272V29.9715H23.3359V29.4272H23.9363ZM23.3359 30.4845H23.9363V33.2433H23.3359V30.4845Z" fill="white"/>
<path d="M26.7168 31.2289C26.7104 31.1455 26.6741 31.0725 26.6271 31.0287C26.5737 30.9787 26.4946 30.9558 26.4113 30.9558C26.2618 30.9558 26.1165 31.0454 26.1165 31.2331C26.1165 31.2831 26.1293 31.3499 26.1763 31.4103C26.2361 31.4875 26.3323 31.5271 26.4092 31.5542L26.7681 31.6939C26.9177 31.7502 27.0672 31.8608 27.1527 31.9609C27.236 32.0609 27.3022 32.2278 27.3022 32.4676C27.3022 32.601 27.2723 32.8241 27.11 33.0077C26.9839 33.1515 26.7617 33.285 26.3835 33.285C26.0054 33.285 25.8088 33.162 25.687 33.041C25.5375 32.8909 25.4648 32.6678 25.4648 32.4676H26.0652C26.0652 32.5406 26.0887 32.624 26.1443 32.6782C26.1998 32.7324 26.3066 32.7678 26.39 32.7678C26.4733 32.7678 26.563 32.7407 26.6228 32.674C26.6891 32.6073 26.7019 32.5239 26.7019 32.4509C26.7019 32.307 26.6549 32.2007 26.4028 32.1006L26.0481 31.9609C25.8195 31.8712 25.7127 31.7669 25.6764 31.7273C25.5439 31.5834 25.514 31.3999 25.514 31.2602C25.514 30.987 25.6101 30.7827 25.7362 30.6596C25.8558 30.5491 26.0545 30.4365 26.3771 30.4365C26.7553 30.4365 26.9711 30.5596 27.0736 30.6596C27.2168 30.7931 27.3022 31.01 27.3022 31.2268H26.7147L26.7168 31.2289Z" fill="white"/>
<path d="M29.4459 32.4258C29.4459 32.5093 29.4523 32.5989 29.5249 32.6656C29.5719 32.7157 29.6574 32.7428 29.7535 32.7428C29.8561 32.7428 29.933 32.7094 29.9928 32.626C30.0291 32.5697 30.0462 32.4988 30.0462 32.4363H30.6466V32.4592C30.6466 32.6657 30.6039 32.9367 30.3112 33.1328C30.1616 33.2328 29.9565 33.2891 29.7535 33.2891C29.4779 33.2891 29.2194 33.1828 29.0634 33.0222C28.8541 32.8054 28.8477 32.5218 28.8477 32.3549V31.2977C28.8477 31.1038 28.8904 30.8306 29.1425 30.6304C29.2814 30.5199 29.4843 30.4407 29.7364 30.4407C29.9886 30.4407 30.2108 30.5178 30.3603 30.6409C30.6231 30.8515 30.6594 31.1309 30.6594 31.3478V32.0714H29.448V32.4279L29.4459 32.4258ZM30.0569 31.6418V31.281C30.0569 31.2081 30.0441 31.1309 29.9736 31.0642C29.9266 31.0204 29.8475 30.987 29.7514 30.987C29.6488 30.987 29.5655 31.0266 29.5185 31.0809C29.4587 31.1476 29.4459 31.231 29.4459 31.304V31.6439H30.0569V31.6418Z" fill="white"/>
<path d="M36.2101 33.2433L36.0114 32.4092H35.2444L35.0457 33.2433H34.4453L35.3619 29.3501H35.8896L36.8062 33.2433H36.2058H36.2101ZM35.6161 30.4344L35.3042 31.9129H35.9409L35.6161 30.4344Z" fill="white"/>
<path d="M39.7227 32.943C39.6394 33.0827 39.524 33.1599 39.4343 33.2037C39.2612 33.2933 39.0689 33.2975 38.9664 33.2975C38.7506 33.2975 38.4985 33.2475 38.2998 33.0202C38.1075 32.7971 38.084 32.5197 38.084 32.3425V30.374C38.084 30.1404 38.0968 29.9006 38.2827 29.6629C38.522 29.3522 38.9001 29.2959 39.1287 29.2959C39.4407 29.2959 39.7035 29.3897 39.8722 29.5461C40.0346 29.6963 40.1778 29.9465 40.1778 30.3072V30.4636H39.5774V30.2697C39.5774 30.1759 39.5646 30.0528 39.4578 29.9528C39.3979 29.8965 39.2954 29.8422 39.133 29.8422C38.9706 29.8422 38.8702 29.9027 38.7976 29.9819C38.6843 30.1092 38.6843 30.2551 38.6843 30.3927V32.2174C38.6843 32.3341 38.6908 32.5009 38.7869 32.6177C38.8595 32.7011 38.9792 32.7574 39.1223 32.7574C39.2484 32.7574 39.3915 32.697 39.4706 32.601C39.5795 32.4738 39.5795 32.2841 39.5795 32.1444V31.621H39.0689V31.1205H40.1778V33.2454H39.8787L39.7227 32.9451V32.943Z" fill="white"/>
<path d="M42.5047 29.3501V33.2433H41.9043V29.3501H42.5047Z" fill="white"/>
<path d="M46.6818 29.3501H47.5749C47.8334 29.3501 48.1496 29.3605 48.4145 29.6066C48.6901 29.8672 48.7201 30.2071 48.7201 30.497V30.6075C48.7201 30.8244 48.6966 31.1476 48.4615 31.3978C48.2158 31.6585 47.8911 31.7044 47.6347 31.7044H47.28V33.2454H46.6797V29.3522L46.6818 29.3501ZM47.2822 31.2018H47.6069C47.7202 31.2018 47.8825 31.1851 48.0086 31.0579C48.1347 30.9307 48.1218 30.7973 48.1218 30.6576V30.4011C48.1218 30.2676 48.1282 30.0779 47.9595 29.9507C47.8206 29.8443 47.6539 29.8506 47.4916 29.8506H47.2822V31.2018Z" fill="white"/>
<path d="M50.858 29.3501V32.4592C50.858 32.526 50.8708 32.6094 50.9413 32.6698C51.0011 32.7199 51.0845 32.7261 51.1336 32.7261H51.1934V33.2433H51.0204C50.8815 33.2433 50.5952 33.2266 50.4093 33.0097C50.2662 32.8429 50.2598 32.649 50.2598 32.4863V29.3501H50.8601H50.858Z" fill="white"/>
<path d="M53.8482 32.9701H53.8354C53.7926 33.0306 53.7157 33.1202 53.6324 33.1807C53.5192 33.2641 53.4102 33.2871 53.2841 33.2871C53.1581 33.2871 52.9786 33.2704 52.8291 33.1432C52.6432 32.9826 52.6133 32.7324 52.6133 32.5093C52.6133 32.3091 52.6261 32.0088 52.7992 31.819C52.9979 31.6022 53.3333 31.5792 53.5063 31.5792C53.5491 31.5792 53.6623 31.5792 53.8482 31.5959V31.3061C53.8482 31.2289 53.8418 31.1455 53.7691 31.0725C53.7093 31.012 53.6196 30.9829 53.5298 30.9829C53.4465 30.9829 53.3568 31.01 53.2906 31.0829C53.2478 31.1267 53.2179 31.1893 53.2115 31.2602H52.6411C52.6346 31.01 52.7479 30.7931 52.8868 30.6659C53.0363 30.5262 53.282 30.4386 53.5576 30.4386C53.8332 30.4386 54.049 30.5283 54.1986 30.6617C54.4144 30.8619 54.4443 31.1226 54.4443 31.3123V33.2412H53.8439V32.968L53.8482 32.9701ZM53.8482 32.0422C53.7755 32.0317 53.705 32.0255 53.6388 32.0255C53.5427 32.0255 53.3995 32.0359 53.3034 32.1423C53.2243 32.2257 53.2136 32.3424 53.2136 32.4321C53.2136 32.5093 53.2265 32.5885 53.2735 32.6594C53.3333 32.7491 53.4123 32.7866 53.5128 32.7866C53.6922 32.7866 53.8482 32.6761 53.8482 32.43V32.0401V32.0422Z" fill="white"/>
<path d="M56.7983 29.6442V30.4845H57.1828V30.9287H56.7983V32.4405C56.7983 32.4968 56.8047 32.6136 56.8816 32.6741C56.9478 32.7241 57.0504 32.7241 57.1038 32.7241H57.1828V33.2412H57.0205C56.8474 33.2412 56.559 33.235 56.3731 33.0473C56.2043 32.8805 56.2001 32.6574 56.2001 32.4905V30.9287H55.8945V30.4845H56.2001V29.6442H56.8004H56.7983Z" fill="white"/>
<path d="M58.8236 30.9286H58.5117V30.4845H58.8236V30.1175C58.8236 29.9277 58.8407 29.6942 59.0523 29.5232C59.2381 29.373 59.4838 29.3501 59.6932 29.3501H59.909V29.8401H59.7894C59.6868 29.8401 59.5971 29.8464 59.5073 29.934C59.4304 30.0174 59.4176 30.1008 59.4176 30.2009V30.4845H59.9026V30.9286H59.4219V33.2412H58.8215V30.9286H58.8236Z" fill="white"/>
<path d="M61.3008 31.3728C61.3008 31.1559 61.3179 30.8494 61.5956 30.6325C61.758 30.5053 61.9845 30.4386 62.2067 30.4386C62.4289 30.4386 62.6575 30.5053 62.8177 30.6325C63.0933 30.8494 63.1125 31.1559 63.1125 31.3728V32.3508C63.1125 32.5677 63.0954 32.8742 62.8177 33.0911C62.6553 33.2183 62.4289 33.285 62.2067 33.285C61.9845 33.285 61.758 33.2183 61.5956 33.0911C61.32 32.8742 61.3008 32.5677 61.3008 32.3508V31.3728ZM62.5122 31.3394C62.5122 31.2122 62.4759 31.1163 62.4224 31.0621C62.3754 31.0183 62.2964 30.9849 62.2067 30.9849C62.1169 30.9849 62.0379 31.0183 61.9909 31.0621C61.9375 31.1184 61.9011 31.2122 61.9011 31.3394V32.3842C61.9011 32.5114 61.9375 32.6073 61.9909 32.6615C62.0379 32.7053 62.1169 32.7386 62.2067 32.7386C62.2964 32.7386 62.3754 32.7053 62.4224 32.6615C62.4759 32.6052 62.5122 32.5114 62.5122 32.3842V31.3394Z" fill="white"/>
<path d="M65.3658 30.4845V30.7785L65.3786 30.7847C65.6243 30.5011 65.9533 30.4407 66.1649 30.4407V31.035C65.8764 30.9912 65.3679 31.0579 65.3679 31.6626V33.2412H64.7676V30.4824H65.3679L65.3658 30.4845Z" fill="white"/>
<path d="M68.1787 30.4845V30.7347C68.2321 30.668 68.3047 30.6075 68.3645 30.5616C68.4671 30.4886 68.5974 30.4386 68.7726 30.4386C68.8859 30.4386 68.9948 30.4657 69.0974 30.5283C69.2063 30.595 69.2704 30.6784 69.3132 30.7681C69.3794 30.668 69.4691 30.5741 69.5759 30.5178C69.6785 30.4615 69.7789 30.4407 69.905 30.4407C70.0908 30.4407 70.2938 30.4678 70.4455 30.6638C70.5651 30.8202 70.578 30.9974 70.578 31.1413V33.2433H69.9776V31.2915C69.9776 31.2185 69.9648 31.1413 69.8986 31.0683C69.8387 31.0079 69.7725 30.9849 69.6956 30.9849C69.6059 30.9849 69.5332 31.012 69.4734 31.0746C69.3837 31.1643 69.3772 31.2644 69.3772 31.3519V33.2433H68.7769V31.2915C68.7769 31.2185 68.7705 31.1476 68.6978 31.0683C68.6444 31.012 68.5846 30.9849 68.4949 30.9849C68.4222 30.9849 68.3453 31.0016 68.2727 31.0746C68.1829 31.1643 68.1765 31.2644 68.1765 31.3519V33.2433H67.5762V30.4845H68.1765H68.1787Z" fill="white"/>
<path d="M110.016 20.9048C108.255 19.7579 106.211 19.1532 104.106 19.1532C102.002 19.1532 99.9569 19.76 98.1965 20.9048L74.9961 36H81.6706L100.25 23.9118C102.591 22.3874 105.619 22.3874 107.96 23.9118L126.539 36H133.214L110.014 20.9048H110.016Z" fill="white"/>
<path d="M126.539 0L107.96 12.0883C105.619 13.6126 102.591 13.6126 100.25 12.0883L81.6706 0H74.9961L98.1965 15.0952C99.9569 16.2421 102.002 16.8468 104.106 16.8468C106.211 16.8468 108.255 16.24 110.016 15.0952L133.214 0H126.539Z" fill="white"/>
<path d="M76.2221 9.31067H72.7695V26.6893H76.2221V9.31067Z" fill="white"/>
<path d="M173.102 9.31067C168.893 9.31067 165.471 12.6513 165.471 16.7592V26.6893H168.923V16.5215C168.923 14.2715 170.797 12.4427 173.102 12.4427H189V9.31067H173.102Z" fill="white"/>
<path d="M158.021 15.1619C158.021 11.936 155.331 9.31067 152.026 9.31067H139.034C134.825 9.31067 131.402 12.6513 131.402 16.7592V19.2428C131.402 23.3508 134.825 26.6913 139.034 26.6913H153.479V23.4988H139.034C137.353 23.4988 135.84 22.5104 135.188 21.0153H152.026C155.331 21.0153 158.021 18.3899 158.021 15.164V15.1619ZM134.855 16.5799C134.855 14.3299 136.729 12.5011 139.034 12.5011H152.208C153.511 12.5011 154.571 13.5354 154.571 14.8074V15.5164C154.571 16.7884 153.511 17.8227 152.208 17.8227H134.855V16.582V16.5799Z" fill="white"/>
<path d="M17.0793 16.4047V19.5973H26.3453C26.3453 21.7493 24.5528 23.4988 22.3479 23.4988H7.63162C5.32632 23.4988 3.4526 21.67 3.4526 19.42V16.582C3.4526 14.332 5.32632 12.5032 7.63162 12.5032H25.166V9.31067H7.63162C3.42269 9.31067 0 12.6513 0 16.7592V19.2428C0 23.3508 3.42269 26.6913 7.63162 26.6913H22.1684C26.3774 26.6913 29.8001 23.3508 29.8001 19.2428V16.4047H17.0814H17.0793Z" fill="white"/>
<path d="M63.7514 16.1795C63.4501 12.303 60.1684 9.31067 56.1454 9.31067H44.7898C40.5809 9.31067 37.1582 12.6513 37.1582 16.7592V19.2428C37.1582 23.3508 40.5809 26.6913 44.7898 26.6913H50.4153C52.43 26.6913 54.3828 26.1137 56.0599 25.0231L60.3265 22.2476V26.6913H63.7791V16.1649L63.7535 16.1816L63.7514 16.1795ZM40.6087 16.582C40.6087 14.332 42.4824 12.5032 44.7877 12.5032H56.1432C58.4485 12.5032 60.3223 14.332 60.3223 16.582V18.4108L54.2417 22.3665C53.103 23.1068 51.7805 23.4988 50.411 23.4988H44.7855C42.4803 23.4988 40.6065 21.67 40.6065 19.42V16.582H40.6087Z" fill="white"/>
</g>
<defs>
<clipPath id="clip0_440_32425">
<rect width="189" height="36" fill="white"/>
</clipPath>
</defs>
</svg>
